<svg width="188" height="52" viewBox="0 0 188 52" fill="none" xmlns="http://www.w3.org/2000/svg">
<rect width="188" height="52" rx="5" fill="#FD6F00"/>
<path d="M65.894 17.363V32H63.983V25.364H56.528V32H54.617V17.363H56.528V23.789H63.983V17.363H65.894ZM70.774 18.623C70.41 18.623 70.102 18.497 69.85 18.245C69.598 17.993 69.472 17.685 69.472 17.321C69.472 16.957 69.598 16.649 69.85 16.397C70.102 16.145 70.41 16.019 70.774 16.019C71.124 16.019 71.418 16.145 71.656 16.397C71.908 16.649 72.034 16.957 72.034 17.321C72.034 17.685 71.908 17.993 71.656 18.245C71.418 18.497 71.124 18.623 70.774 18.623ZM71.698 20.492V32H69.787V20.492H71.698ZM77.496 22.361C77.832 21.703 78.308 21.192 78.924 20.828C79.554 20.464 80.317 20.282 81.213 20.282V22.256H80.709C78.567 22.256 77.496 23.418 77.496 25.742V32H75.585V20.492H77.496V22.361ZM94.549 25.805C94.549 26.169 94.528 26.554 94.486 26.96H85.288C85.358 28.094 85.743 28.983 86.443 29.627C87.157 30.257 88.018 30.572 89.026 30.572C89.852 30.572 90.538 30.383 91.084 30.005C91.644 29.613 92.036 29.095 92.26 28.451H94.318C94.01 29.557 93.394 30.46 92.47 31.16C91.546 31.846 90.398 32.189 89.026 32.189C87.934 32.189 86.954 31.944 86.086 31.454C85.232 30.964 84.56 30.271 84.07 29.375C83.58 28.465 83.335 27.415 83.335 26.225C83.335 25.035 83.573 23.992 84.049 23.096C84.525 22.2 85.19 21.514 86.044 21.038C86.912 20.548 87.906 20.303 89.026 20.303C90.118 20.303 91.084 20.541 91.924 21.017C92.764 21.493 93.408 22.151 93.856 22.991C94.318 23.817 94.549 24.755 94.549 25.805ZM92.575 25.406C92.575 24.678 92.414 24.055 92.092 23.537C91.77 23.005 91.329 22.606 90.769 22.34C90.223 22.06 89.614 21.92 88.942 21.92C87.976 21.92 87.15 22.228 86.464 22.844C85.792 23.46 85.407 24.314 85.309 25.406H92.575ZM118.777 17.468V32H116.866V21.164L112.036 32H110.692L105.841 21.143V32H103.93V17.468H105.988L111.364 29.48L116.74 17.468H118.777ZM133.148 25.805C133.148 26.169 133.127 26.554 133.085 26.96H123.887C123.957 28.094 124.342 28.983 125.042 29.627C125.756 30.257 126.617 30.572 127.625 30.572C128.451 30.572 129.137 30.383 129.683 30.005C130.243 29.613 130.635 29.095 130.859 28.451H132.917C132.609 29.557 131.993 30.46 131.069 31.16C130.145 31.846 128.997 32.189 127.625 32.189C126.533 32.189 125.553 31.944 124.685 31.454C123.831 30.964 123.159 30.271 122.669 29.375C122.179 28.465 121.934 27.415 121.934 26.225C121.934 25.035 122.172 23.992 122.648 23.096C123.124 22.2 123.789 21.514 124.643 21.038C125.511 20.548 126.505 20.303 127.625 20.303C128.717 20.303 129.683 20.541 130.523 21.017C131.363 21.493 132.007 22.151 132.455 22.991C132.917 23.817 133.148 24.755 133.148 25.805ZM131.174 25.406C131.174 24.678 131.013 24.055 130.691 23.537C130.369 23.005 129.928 22.606 129.368 22.34C128.822 22.06 128.213 21.92 127.541 21.92C126.575 21.92 125.749 22.228 125.063 22.844C124.391 23.46 124.006 24.314 123.908 25.406H131.174Z" fill="white"/>
</svg>
